<mxfile host="app.diagrams.net" agent="Mozilla/5.0 (Windows NT 10.0; Win64; x64) AppleWebKit/537.36 (KHTML, like Gecko) Chrome/138.0.0.0 Safari/537.36" version="28.0.7">
  <diagram name="Page-1" id="aYmvn7rq16eoBEnjJHyL">
    <mxGraphModel dx="2276" dy="1883" grid="1" gridSize="10" guides="1" tooltips="1" connect="1" arrows="1" fold="1" page="1" pageScale="1" pageWidth="850" pageHeight="1100" math="0" shadow="0">
      <root>
        <mxCell id="0" />
        <mxCell id="1" parent="0" />
        <mxCell id="BZTRUkKIR42aVyGk3ifO-1" value="Inventory" style="rounded=1;whiteSpace=wrap;html=1;" vertex="1" parent="1">
          <mxGeometry x="202.5" y="200" width="120" height="60" as="geometry" />
        </mxCell>
        <mxCell id="BZTRUkKIR42aVyGk3ifO-25" style="edgeStyle=orthogonalEdgeStyle;rounded=0;orthogonalLoop=1;jettySize=auto;html=1;entryX=0.25;entryY=0;entryDx=0;entryDy=0;" edge="1" parent="1" source="BZTRUkKIR42aVyGk3ifO-2" target="BZTRUkKIR42aVyGk3ifO-1">
          <mxGeometry relative="1" as="geometry" />
        </mxCell>
        <mxCell id="BZTRUkKIR42aVyGk3ifO-2" value="Id" style="ellipse;whiteSpace=wrap;html=1;" vertex="1" parent="1">
          <mxGeometry x="200" y="30" width="55" height="30" as="geometry" />
        </mxCell>
        <mxCell id="BZTRUkKIR42aVyGk3ifO-28" style="edgeStyle=orthogonalEdgeStyle;rounded=0;orthogonalLoop=1;jettySize=auto;html=1;entryX=0.75;entryY=0;entryDx=0;entryDy=0;" edge="1" parent="1" source="BZTRUkKIR42aVyGk3ifO-3" target="BZTRUkKIR42aVyGk3ifO-1">
          <mxGeometry relative="1" as="geometry">
            <Array as="points">
              <mxPoint x="320" y="50" />
              <mxPoint x="320" y="50" />
            </Array>
          </mxGeometry>
        </mxCell>
        <mxCell id="BZTRUkKIR42aVyGk3ifO-3" value="craeted_at" style="ellipse;whiteSpace=wrap;html=1;" vertex="1" parent="1">
          <mxGeometry x="300" y="-40" width="70" height="40" as="geometry" />
        </mxCell>
        <mxCell id="BZTRUkKIR42aVyGk3ifO-24" style="edgeStyle=orthogonalEdgeStyle;rounded=0;orthogonalLoop=1;jettySize=auto;html=1;entryX=0.25;entryY=0;entryDx=0;entryDy=0;exitX=0.371;exitY=1.025;exitDx=0;exitDy=0;exitPerimeter=0;" edge="1" parent="1" source="BZTRUkKIR42aVyGk3ifO-4" target="BZTRUkKIR42aVyGk3ifO-1">
          <mxGeometry relative="1" as="geometry">
            <Array as="points">
              <mxPoint x="176" y="160" />
              <mxPoint x="240" y="160" />
              <mxPoint x="240" y="200" />
            </Array>
          </mxGeometry>
        </mxCell>
        <mxCell id="BZTRUkKIR42aVyGk3ifO-4" value="created_at" style="ellipse;whiteSpace=wrap;html=1;" vertex="1" parent="1">
          <mxGeometry x="150" y="-20" width="70" height="40" as="geometry" />
        </mxCell>
        <mxCell id="BZTRUkKIR42aVyGk3ifO-27" style="edgeStyle=orthogonalEdgeStyle;rounded=0;orthogonalLoop=1;jettySize=auto;html=1;entryX=0.5;entryY=0;entryDx=0;entryDy=0;" edge="1" parent="1" source="BZTRUkKIR42aVyGk3ifO-5" target="BZTRUkKIR42aVyGk3ifO-1">
          <mxGeometry relative="1" as="geometry" />
        </mxCell>
        <mxCell id="BZTRUkKIR42aVyGk3ifO-5" value="updated_at" style="ellipse;whiteSpace=wrap;html=1;" vertex="1" parent="1">
          <mxGeometry x="230" y="-30" width="65" height="40" as="geometry" />
        </mxCell>
        <mxCell id="BZTRUkKIR42aVyGk3ifO-23" style="edgeStyle=orthogonalEdgeStyle;rounded=0;orthogonalLoop=1;jettySize=auto;html=1;entryX=0;entryY=0;entryDx=0;entryDy=0;" edge="1" parent="1" source="BZTRUkKIR42aVyGk3ifO-6" target="BZTRUkKIR42aVyGk3ifO-1">
          <mxGeometry relative="1" as="geometry">
            <Array as="points">
              <mxPoint x="115" y="200" />
            </Array>
          </mxGeometry>
        </mxCell>
        <mxCell id="BZTRUkKIR42aVyGk3ifO-6" value="updated&lt;span style=&quot;background-color: transparent; color: light-dark(rgb(0, 0, 0), rgb(255, 255, 255));&quot;&gt;_by&lt;/span&gt;" style="ellipse;whiteSpace=wrap;html=1;" vertex="1" parent="1">
          <mxGeometry x="80" y="20" width="70" height="40" as="geometry" />
        </mxCell>
        <mxCell id="BZTRUkKIR42aVyGk3ifO-34" style="edgeStyle=orthogonalEdgeStyle;rounded=0;orthogonalLoop=1;jettySize=auto;html=1;entryX=1;entryY=0;entryDx=0;entryDy=0;" edge="1" parent="1" source="BZTRUkKIR42aVyGk3ifO-17" target="BZTRUkKIR42aVyGk3ifO-1">
          <mxGeometry relative="1" as="geometry" />
        </mxCell>
        <mxCell id="BZTRUkKIR42aVyGk3ifO-17" value="product_id" style="ellipse;whiteSpace=wrap;html=1;" vertex="1" parent="1">
          <mxGeometry x="380" y="30" width="70" height="40" as="geometry" />
        </mxCell>
        <mxCell id="BZTRUkKIR42aVyGk3ifO-29" style="edgeStyle=orthogonalEdgeStyle;rounded=0;orthogonalLoop=1;jettySize=auto;html=1;entryX=1;entryY=0;entryDx=0;entryDy=0;" edge="1" parent="1" source="BZTRUkKIR42aVyGk3ifO-18" target="BZTRUkKIR42aVyGk3ifO-1">
          <mxGeometry relative="1" as="geometry" />
        </mxCell>
        <mxCell id="BZTRUkKIR42aVyGk3ifO-18" value="SKU" style="ellipse;whiteSpace=wrap;html=1;" vertex="1" parent="1">
          <mxGeometry x="370" y="-20" width="70" height="40" as="geometry" />
        </mxCell>
        <mxCell id="BZTRUkKIR42aVyGk3ifO-37" style="edgeStyle=orthogonalEdgeStyle;rounded=0;orthogonalLoop=1;jettySize=auto;html=1;entryX=1;entryY=0.5;entryDx=0;entryDy=0;exitX=0.5;exitY=1;exitDx=0;exitDy=0;" edge="1" parent="1" source="BZTRUkKIR42aVyGk3ifO-31" target="BZTRUkKIR42aVyGk3ifO-1">
          <mxGeometry relative="1" as="geometry" />
        </mxCell>
        <mxCell id="BZTRUkKIR42aVyGk3ifO-31" value="quantity" style="ellipse;whiteSpace=wrap;html=1;" vertex="1" parent="1">
          <mxGeometry x="380" y="80" width="70" height="40" as="geometry" />
        </mxCell>
        <mxCell id="BZTRUkKIR42aVyGk3ifO-38" style="edgeStyle=orthogonalEdgeStyle;rounded=0;orthogonalLoop=1;jettySize=auto;html=1;entryX=1;entryY=0.5;entryDx=0;entryDy=0;exitX=0.5;exitY=1;exitDx=0;exitDy=0;" edge="1" parent="1" source="BZTRUkKIR42aVyGk3ifO-32" target="BZTRUkKIR42aVyGk3ifO-1">
          <mxGeometry relative="1" as="geometry">
            <Array as="points">
              <mxPoint x="485" y="230" />
            </Array>
          </mxGeometry>
        </mxCell>
        <mxCell id="BZTRUkKIR42aVyGk3ifO-32" value="reserved" style="ellipse;whiteSpace=wrap;html=1;" vertex="1" parent="1">
          <mxGeometry x="450" y="60" width="70" height="40" as="geometry" />
        </mxCell>
        <mxCell id="BZTRUkKIR42aVyGk3ifO-33" value="warehouse_id" style="ellipse;whiteSpace=wrap;html=1;" vertex="1" parent="1">
          <mxGeometry x="500" width="90" height="40" as="geometry" />
        </mxCell>
        <mxCell id="BZTRUkKIR42aVyGk3ifO-39" style="edgeStyle=orthogonalEdgeStyle;rounded=0;orthogonalLoop=1;jettySize=auto;html=1;entryX=1;entryY=0.617;entryDx=0;entryDy=0;entryPerimeter=0;exitX=0.5;exitY=1;exitDx=0;exitDy=0;" edge="1" parent="1" source="BZTRUkKIR42aVyGk3ifO-33" target="BZTRUkKIR42aVyGk3ifO-1">
          <mxGeometry relative="1" as="geometry" />
        </mxCell>
        <mxCell id="BZTRUkKIR42aVyGk3ifO-62" style="edgeStyle=orthogonalEdgeStyle;rounded=0;orthogonalLoop=1;jettySize=auto;html=1;entryX=0;entryY=0.5;entryDx=0;entryDy=0;" edge="1" parent="1" source="BZTRUkKIR42aVyGk3ifO-40" target="BZTRUkKIR42aVyGk3ifO-1">
          <mxGeometry relative="1" as="geometry" />
        </mxCell>
        <mxCell id="BZTRUkKIR42aVyGk3ifO-64" value="m" style="edgeLabel;html=1;align=center;verticalAlign=middle;resizable=0;points=[];" vertex="1" connectable="0" parent="BZTRUkKIR42aVyGk3ifO-62">
          <mxGeometry x="-0.9194" y="-1" relative="1" as="geometry">
            <mxPoint x="1" y="-2" as="offset" />
          </mxGeometry>
        </mxCell>
        <mxCell id="BZTRUkKIR42aVyGk3ifO-65" value="1" style="edgeLabel;html=1;align=center;verticalAlign=middle;resizable=0;points=[];" vertex="1" connectable="0" parent="BZTRUkKIR42aVyGk3ifO-62">
          <mxGeometry x="0.7736" relative="1" as="geometry">
            <mxPoint x="10" y="-1" as="offset" />
          </mxGeometry>
        </mxCell>
        <mxCell id="BZTRUkKIR42aVyGk3ifO-40" value="warehouse" style="rounded=1;whiteSpace=wrap;html=1;" vertex="1" parent="1">
          <mxGeometry x="-170" y="270" width="120" height="60" as="geometry" />
        </mxCell>
        <mxCell id="BZTRUkKIR42aVyGk3ifO-41" value="Id" style="ellipse;whiteSpace=wrap;html=1;" vertex="1" parent="1">
          <mxGeometry x="-272.5" y="-20" width="55" height="30" as="geometry" />
        </mxCell>
        <mxCell id="BZTRUkKIR42aVyGk3ifO-51" style="edgeStyle=orthogonalEdgeStyle;rounded=0;orthogonalLoop=1;jettySize=auto;html=1;entryX=0;entryY=0;entryDx=0;entryDy=0;" edge="1" parent="1" source="BZTRUkKIR42aVyGk3ifO-42" target="BZTRUkKIR42aVyGk3ifO-40">
          <mxGeometry relative="1" as="geometry" />
        </mxCell>
        <mxCell id="BZTRUkKIR42aVyGk3ifO-42" value="craeted_at" style="ellipse;whiteSpace=wrap;html=1;" vertex="1" parent="1">
          <mxGeometry x="-280" y="210" width="70" height="40" as="geometry" />
        </mxCell>
        <mxCell id="BZTRUkKIR42aVyGk3ifO-53" style="edgeStyle=orthogonalEdgeStyle;rounded=0;orthogonalLoop=1;jettySize=auto;html=1;entryX=0.25;entryY=0;entryDx=0;entryDy=0;" edge="1" parent="1" source="BZTRUkKIR42aVyGk3ifO-43" target="BZTRUkKIR42aVyGk3ifO-40">
          <mxGeometry relative="1" as="geometry" />
        </mxCell>
        <mxCell id="BZTRUkKIR42aVyGk3ifO-43" value="created_at" style="ellipse;whiteSpace=wrap;html=1;" vertex="1" parent="1">
          <mxGeometry x="-280" y="100" width="70" height="40" as="geometry" />
        </mxCell>
        <mxCell id="BZTRUkKIR42aVyGk3ifO-54" style="edgeStyle=orthogonalEdgeStyle;rounded=0;orthogonalLoop=1;jettySize=auto;html=1;" edge="1" parent="1" source="BZTRUkKIR42aVyGk3ifO-44" target="BZTRUkKIR42aVyGk3ifO-40">
          <mxGeometry relative="1" as="geometry" />
        </mxCell>
        <mxCell id="BZTRUkKIR42aVyGk3ifO-44" value="updated_at" style="ellipse;whiteSpace=wrap;html=1;" vertex="1" parent="1">
          <mxGeometry x="-277.5" y="40" width="65" height="40" as="geometry" />
        </mxCell>
        <mxCell id="BZTRUkKIR42aVyGk3ifO-52" style="edgeStyle=orthogonalEdgeStyle;rounded=0;orthogonalLoop=1;jettySize=auto;html=1;entryX=0.25;entryY=0;entryDx=0;entryDy=0;" edge="1" parent="1" source="BZTRUkKIR42aVyGk3ifO-45" target="BZTRUkKIR42aVyGk3ifO-40">
          <mxGeometry relative="1" as="geometry" />
        </mxCell>
        <mxCell id="BZTRUkKIR42aVyGk3ifO-45" value="updated&lt;span style=&quot;background-color: transparent; color: light-dark(rgb(0, 0, 0), rgb(255, 255, 255));&quot;&gt;_by&lt;/span&gt;" style="ellipse;whiteSpace=wrap;html=1;" vertex="1" parent="1">
          <mxGeometry x="-280" y="160" width="70" height="40" as="geometry" />
        </mxCell>
        <mxCell id="BZTRUkKIR42aVyGk3ifO-56" style="edgeStyle=orthogonalEdgeStyle;rounded=0;orthogonalLoop=1;jettySize=auto;html=1;entryX=0.7;entryY=0.05;entryDx=0;entryDy=0;entryPerimeter=0;" edge="1" parent="1" source="BZTRUkKIR42aVyGk3ifO-41" target="BZTRUkKIR42aVyGk3ifO-40">
          <mxGeometry relative="1" as="geometry" />
        </mxCell>
        <mxCell id="BZTRUkKIR42aVyGk3ifO-61" style="edgeStyle=orthogonalEdgeStyle;rounded=0;orthogonalLoop=1;jettySize=auto;html=1;entryX=0.5;entryY=1;entryDx=0;entryDy=0;" edge="1" parent="1" source="BZTRUkKIR42aVyGk3ifO-57" target="BZTRUkKIR42aVyGk3ifO-40">
          <mxGeometry relative="1" as="geometry" />
        </mxCell>
        <mxCell id="BZTRUkKIR42aVyGk3ifO-57" value="name" style="ellipse;whiteSpace=wrap;html=1;" vertex="1" parent="1">
          <mxGeometry x="-60" y="380" width="70" height="40" as="geometry" />
        </mxCell>
        <mxCell id="BZTRUkKIR42aVyGk3ifO-60" style="edgeStyle=orthogonalEdgeStyle;rounded=0;orthogonalLoop=1;jettySize=auto;html=1;entryX=0.25;entryY=1;entryDx=0;entryDy=0;" edge="1" parent="1" source="BZTRUkKIR42aVyGk3ifO-58" target="BZTRUkKIR42aVyGk3ifO-40">
          <mxGeometry relative="1" as="geometry" />
        </mxCell>
        <mxCell id="BZTRUkKIR42aVyGk3ifO-58" value="location" style="ellipse;whiteSpace=wrap;html=1;" vertex="1" parent="1">
          <mxGeometry x="-280" y="380" width="70" height="40" as="geometry" />
        </mxCell>
      </root>
    </mxGraphModel>
  </diagram>
</mxfile>
